<svg width="97" height="170" viewBox="0 0 97 170" fill="none" xmlns="http://www.w3.org/2000/svg">
<mask id="path-1-outside-1_58_859" maskUnits="userSpaceOnUse" x="0.356934" y="-0.666992" width="96" height="171" fill="black">
<rect fill="white" x="0.356934" y="-0.666992" width="96" height="171"/>
<path fill-rule="evenodd" clip-rule="evenodd" d="M4.35693 13.1417C4.35693 7.7245 8.74843 3.33301 14.1656 3.33301H82.8264C88.2436 3.33301 92.6351 7.72451 92.6351 13.1417L92.6351 69.7248H83.5809V100.66H92.6351L92.6351 156.916C92.6351 162.334 88.2436 166.725 82.8264 166.725H14.1656C8.74844 166.725 4.35693 162.334 4.35693 156.916V101.425H13.411V70.4901H4.35693V13.1417Z"/>
</mask>
<path fill-rule="evenodd" clip-rule="evenodd" d="M4.35693 13.1417C4.35693 7.7245 8.74843 3.33301 14.1656 3.33301H82.8264C88.2436 3.33301 92.6351 7.72451 92.6351 13.1417L92.6351 69.7248H83.5809V100.66H92.6351L92.6351 156.916C92.6351 162.334 88.2436 166.725 82.8264 166.725H14.1656C8.74844 166.725 4.35693 162.334 4.35693 156.916V101.425H13.411V70.4901H4.35693V13.1417Z" fill="#242424"/>
<path d="M92.6351 13.1417L89.617 13.1417L89.617 13.1417L92.6351 13.1417ZM92.6351 69.7248V72.7429H95.6532L95.6532 69.7248L92.6351 69.7248ZM83.5809 69.7248V66.7068H80.5629V69.7248H83.5809ZM83.5809 100.66H80.5629V103.678H83.5809V100.66ZM92.6351 100.66L95.6532 100.66L95.6532 97.6418H92.6351V100.66ZM92.6351 156.916L89.617 156.916V156.916H92.6351ZM4.35693 101.425V98.4071H1.33888V101.425H4.35693ZM13.411 101.425V104.443H16.4291V101.425H13.411ZM13.411 70.4901H16.4291V67.472H13.411V70.4901ZM4.35693 70.4901H1.33888V73.5081H4.35693V70.4901ZM14.1656 0.314951C7.08161 0.314951 1.33888 6.05767 1.33888 13.1417H7.37499C7.37499 9.39133 10.4153 6.35106 14.1656 6.35106V0.314951ZM82.8264 0.314951H14.1656V6.35106H82.8264V0.314951ZM95.6531 13.1417C95.6531 6.05768 89.9104 0.314951 82.8264 0.314951V6.35106C86.5768 6.35106 89.617 9.39134 89.617 13.1417H95.6531ZM95.6532 69.7248L95.6531 13.1417L89.617 13.1417L89.617 69.7248L95.6532 69.7248ZM83.5809 72.7429H92.6351V66.7068H83.5809V72.7429ZM86.599 100.66V69.7248H80.5629V100.66H86.599ZM92.6351 97.6418H83.5809V103.678H92.6351V97.6418ZM95.6531 156.916L95.6532 100.66L89.617 100.66L89.617 156.916L95.6531 156.916ZM82.8264 169.743C89.9104 169.743 95.6531 164 95.6531 156.916H89.617C89.617 160.667 86.5768 163.707 82.8264 163.707V169.743ZM14.1656 169.743H82.8264V163.707H14.1656V169.743ZM1.33888 156.916C1.33888 164 7.08162 169.743 14.1656 169.743V163.707C10.4153 163.707 7.37499 160.667 7.37499 156.916H1.33888ZM1.33888 101.425V156.916H7.37499V101.425H1.33888ZM13.411 98.4071H4.35693V104.443H13.411V98.4071ZM10.393 70.4901V101.425H16.4291V70.4901H10.393ZM4.35693 73.5081H13.411V67.472H4.35693V73.5081ZM1.33888 13.1417V70.4901H7.37499V13.1417H1.33888Z" fill="black" mask="url(#path-1-outside-1_58_859)"/>
<rect x="0.584229" y="75.0156" width="8.29966" height="18.8629" rx="0.754514" fill="url(#paint0_linear_58_859)"/>
<rect x="88.1079" y="75.0156" width="8.29966" height="18.8629" rx="0.754514" fill="url(#paint1_linear_58_859)"/>
<line x1="12.6566" y1="84.0697" x2="85.09" y2="84.0697" stroke="black" stroke-width="1.50903"/>
<defs>
<linearGradient id="paint0_linear_58_859" x1="4.73406" y1="75.0156" x2="4.73406" y2="93.8785" gradientUnits="userSpaceOnUse">
<stop stop-color="white"/>
<stop offset="1" stop-color="#BFB9B1" stop-opacity="0.35"/>
</linearGradient>
<linearGradient id="paint1_linear_58_859" x1="92.2577" y1="75.0156" x2="92.2577" y2="93.8785" gradientUnits="userSpaceOnUse">
<stop stop-color="white"/>
<stop offset="1" stop-color="#BFB9B1" stop-opacity="0.35"/>
</linearGradient>
</defs>
</svg>
